<svg width="20" height="20" viewBox="0 0 20 20" fill="none" xmlns="http://www.w3.org/2000/svg">
<path d="M9.17489 2.57495L16.5991 3.6362L17.6596 11.0612L10.7656 17.9552C10.625 18.0958 10.4343 18.1748 10.2354 18.1748C10.0365 18.1748 9.84578 18.0958 9.70514 17.9552L2.28014 10.5302C2.13953 10.3896 2.06055 10.1988 2.06055 9.99995C2.06055 9.80108 2.13953 9.61035 2.28014 9.4697L9.17489 2.57495ZM9.70514 4.16645L3.87089 9.99995L10.2354 16.3637L16.0689 10.5302L15.2739 4.96145L9.70514 4.16645ZM11.2951 8.93945C11.0138 8.65799 10.8557 8.27629 10.8558 7.87831C10.8559 7.68125 10.8947 7.48613 10.9701 7.30409C11.0456 7.12204 11.1561 6.95664 11.2955 6.81733C11.4349 6.67801 11.6003 6.56751 11.7824 6.49213C11.9645 6.41675 12.1596 6.37797 12.3567 6.37801C12.7546 6.37808 13.1363 6.53624 13.4176 6.8177C13.699 7.09916 13.857 7.48087 13.857 7.87884C13.8569 8.27682 13.6987 8.65846 13.4173 8.93983C13.1358 9.22119 12.7541 9.37921 12.3561 9.37914C11.9581 9.37907 11.5765 9.22091 11.2951 8.93945Z" fill="#A4A4A4"/>
</svg>
