<svg width="20" height="20" viewBox="0 0 20 20" fill="none" xmlns="http://www.w3.org/2000/svg">
<path d="M3.25 16.75C3.05109 16.75 2.86032 16.671 2.71967 16.5303C2.57902 16.3897 2.5 16.1989 2.5 16V4C2.5 3.80109 2.57902 3.61032 2.71967 3.46967C2.86032 3.32902 3.05109 3.25 3.25 3.25H8.8105L10.3105 4.75H16C16.1989 4.75 16.3897 4.82902 16.5303 4.96967C16.671 5.11032 16.75 5.30109 16.75 5.5V7.75H15.25V6.25H9.6895L8.1895 4.75H4V13.7485L5.125 9.25H17.875L16.1425 16.1823C16.1019 16.3444 16.0082 16.4884 15.8764 16.5913C15.7446 16.6941 15.5822 16.75 15.415 16.75H3.25V16.75ZM15.9535 10.75H6.2965L5.1715 15.25H14.8285L15.9535 10.75Z" fill="#5C5C5C"/>
</svg>
