<svg width="20" height="20" viewBox="0 0 20 20" fill="none" xmlns="http://www.w3.org/2000/svg">
<g clip-path="url(#clip0_166824_17445)">
<path d="M10 20C15.5228 20 20 15.5228 20 10C20 4.47715 15.5228 0 10 0C4.47715 0 0 4.47715 0 10C0 15.5228 4.47715 20 10 20Z" fill="#F0F0F0"/>
<path d="M19.9998 10.0001C19.9998 5.70043 17.286 2.035 13.478 0.62207V19.3781C17.286 17.9652 19.9998 14.2997 19.9998 10.0001Z" fill="#D80027"/>
<path d="M0 10.0001C0 14.2997 2.71375 17.9652 6.52176 19.3781V0.62207C2.71375 2.035 0 5.70043 0 10.0001Z" fill="#6DA544"/>
</g>
<defs>
<clipPath id="clip0_166824_17445">
<rect width="20" height="20" fill="white"/>
</clipPath>
</defs>
</svg>
