<svg width="20" height="20" viewBox="0 0 20 20" fill="none" xmlns="http://www.w3.org/2000/svg">
<path d="M18.125 9.09696H13.373L17.4889 6.72098L16.5847 5.15402L12.47 7.53116L14.8448 3.41527L13.279 2.51107L10.9054 6.6258V1.875H9.09464V6.62696L6.71982 2.51107L5.15518 3.41527L7.53 7.53L3.41527 5.15518L2.51107 6.71982L6.62696 9.0958H1.875V10.903H6.6258L2.51107 13.279L3.41527 14.846L7.53 12.47L5.15402 16.5847L6.72098 17.4889L9.0958 13.373V18.125H10.903V13.373L13.279 17.4889L14.8448 16.5847L12.4688 12.4688L16.5836 14.8448L17.4878 13.279L13.373 10.9042H18.1238L18.125 9.09696ZM10 12.4584C9.34553 12.4584 8.71787 12.1984 8.25509 11.7356C7.79231 11.2728 7.53232 10.6452 7.53232 9.99071C7.53232 9.33625 7.79231 8.70858 8.25509 8.2458C8.71787 7.78302 9.34553 7.52304 10 7.52304C10.6545 7.52304 11.2821 7.78302 11.7449 8.2458C12.2077 8.70858 12.4677 9.33625 12.4677 9.99071C12.4677 10.6452 12.2077 11.2728 11.7449 11.7356C11.2821 12.1984 10.6545 12.4584 10 12.4584Z" fill="#625DF5"/>
</svg>
