<svg width="20" height="20" viewBox="0 0 20 20" fill="none" xmlns="http://www.w3.org/2000/svg">
<path d="M3.89643 14.9513C3.53721 14.9521 3.18422 14.8555 2.87353 14.6713C2.56283 14.4872 2.30556 14.2221 2.128 13.9031C1.95315 13.5864 1.86596 13.2271 1.87574 12.8637C1.88553 12.5002 1.99193 12.1463 2.18355 11.8399L5.82535 5.99866C6.01174 5.68473 6.27638 5.42695 6.59223 5.25166C6.90807 5.07637 7.26381 4.98986 7.62311 5.00095C7.98213 5.00973 8.33241 5.11579 8.63812 5.30827C8.94384 5.50075 9.19399 5.77273 9.36299 6.09638C9.70248 6.75207 9.66005 7.54094 9.25343 8.15644L5.61394 13.9977C5.42938 14.2915 5.1752 14.5329 4.87497 14.6996C4.57473 14.8663 4.23815 14.9529 3.89643 14.9513Z" fill="#F62B54"/>
<path d="M10.1432 14.951C9.40871 14.951 8.73281 14.5499 8.37789 13.9053C8.20344 13.5894 8.11645 13.231 8.12623 12.8685C8.13602 12.506 8.24222 12.1531 8.43345 11.8476L12.0683 6.01968C12.252 5.70133 12.5156 5.43897 12.832 5.25979C13.1484 5.08061 13.506 4.99115 13.8676 5.00069C14.6083 5.01724 15.2796 5.44044 15.6191 6.10243C15.9562 6.76442 15.9069 7.55802 15.4879 8.17194L11.8538 13.9998C11.6698 14.2923 11.4167 14.5328 11.1177 14.699C10.8188 14.8653 10.4836 14.9519 10.1432 14.951Z" fill="#FFCC00"/>
<path d="M16.2499 15.0002C17.2854 15.0002 18.1248 14.1608 18.1248 13.1253C18.1248 12.0899 17.2854 11.2505 16.2499 11.2505C15.2144 11.2505 14.375 12.0899 14.375 13.1253C14.375 14.1608 15.2144 15.0002 16.2499 15.0002Z" fill="#00CA72"/>
</svg>
