<svg width="20" height="20" viewBox="0 0 20 20" fill="none" xmlns="http://www.w3.org/2000/svg">
<path d="M0 10C0 4.47715 4.47715 0 10 0C15.5228 0 20 4.47715 20 10C20 15.5228 15.5228 20 10 20C4.47715 20 0 15.5228 0 10Z" fill="#47C2FF"/>
<path fill-rule="evenodd" clip-rule="evenodd" d="M12.9475 12.0007C14.0526 13.1058 15.8441 13.1058 16.9492 12.0007C18.0541 10.8957 18.0541 9.10416 16.9492 7.99913C15.8441 6.89417 14.0526 6.89417 12.9475 7.99913L10.9468 9.99997L12.9475 12.0007Z" fill="url(#paint0_linear_166824_17429)" fill-opacity="0.72"/>
<path fill-rule="evenodd" clip-rule="evenodd" d="M12.0007 16.9489C13.1057 15.8439 13.1057 14.0523 12.0007 12.9473L9.99991 10.9465L7.99913 12.9473C6.89417 14.0523 6.89417 15.8439 7.99913 16.9489C9.10416 18.0539 10.8957 18.0539 12.0007 16.9489Z" fill="url(#paint1_linear_166824_17429)" fill-opacity="0.64"/>
<path fill-rule="evenodd" clip-rule="evenodd" d="M3.05091 12.0007C1.94592 10.8957 1.94592 9.10416 3.05091 7.99913C4.15596 6.89417 5.94751 6.89417 7.05254 7.99913L9.05331 9.99997L7.05254 12.0007C5.94751 13.1058 4.15596 13.1058 3.05091 12.0007Z" fill="url(#paint2_linear_166824_17429)" fill-opacity="0.56"/>
<path fill-rule="evenodd" clip-rule="evenodd" d="M12.0007 7.05254C13.1057 5.94751 13.1057 4.15596 12.0007 3.05093C10.8957 1.94591 9.10416 1.94591 7.99913 3.05093C6.89417 4.15596 6.89417 5.94751 7.99913 7.05254L9.99991 9.05332L12.0007 7.05254Z" fill="url(#paint3_linear_166824_17429)" fill-opacity="0.8"/>
<defs>
<linearGradient id="paint0_linear_166824_17429" x1="10.0001" y1="2.22209" x2="10.0001" y2="25.8099" gradientUnits="userSpaceOnUse">
<stop offset="0.313079" stop-color="white"/>
<stop offset="1" stop-color="white" stop-opacity="0"/>
</linearGradient>
<linearGradient id="paint1_linear_166824_17429" x1="9.99989" y1="2.22213" x2="9.99989" y2="25.81" gradientUnits="userSpaceOnUse">
<stop offset="0.313079" stop-color="white"/>
<stop offset="1" stop-color="white" stop-opacity="0"/>
</linearGradient>
<linearGradient id="paint2_linear_166824_17429" x1="9.99995" y1="2.22209" x2="9.99995" y2="25.8099" gradientUnits="userSpaceOnUse">
<stop offset="0.313079" stop-color="white"/>
<stop offset="1" stop-color="white" stop-opacity="0"/>
</linearGradient>
<linearGradient id="paint3_linear_166824_17429" x1="9.99989" y1="2.22217" x2="9.99989" y2="25.81" gradientUnits="userSpaceOnUse">
<stop offset="0.313079" stop-color="white"/>
<stop offset="1" stop-color="white" stop-opacity="0"/>
</linearGradient>
</defs>
</svg>
