<svg width="20" height="20" viewBox="0 0 20 20" fill="none" xmlns="http://www.w3.org/2000/svg">
<path d="M0 10C0 4.47715 4.47715 0 10 0C15.5228 0 20 4.47715 20 10C20 15.5228 15.5228 20 10 20C4.47715 20 0 15.5228 0 10Z" fill="#7D52F4"/>
<path d="M12.0136 2.63225L10.4789 2.22241L9.18559 7.0328L8.01795 2.68995L6.4832 3.09978L7.74476 7.79191L4.60251 4.66035L3.479 5.78003L6.92566 9.21501L2.6334 8.0688L2.22217 9.59829L6.91201 10.8507C6.85831 10.6199 6.82991 10.3794 6.82991 10.1323C6.82991 8.38321 8.25263 6.96532 10.0077 6.96532C11.7627 6.96532 13.1854 8.38321 13.1854 10.1323C13.1854 10.3778 13.1573 10.6168 13.1043 10.8462L17.3665 11.9844L17.7777 10.4549L13.0692 9.19755L17.3618 8.05126L16.9505 6.52176L12.2423 7.77904L15.3845 4.64749L14.261 3.52781L10.8621 6.91512L12.0136 2.63225Z" fill="url(#paint0_linear_166824_17432)" fill-opacity="0.88"/>
<path d="M13.1002 10.8642C12.9686 11.4186 12.6908 11.9166 12.3096 12.3157L15.3974 15.393L16.5209 14.2733L13.1002 10.8642Z" fill="url(#paint1_linear_166824_17432)" fill-opacity="0.88"/>
<path d="M12.2785 12.3478C11.8927 12.7404 11.4052 13.0334 10.8585 13.1845L11.9821 17.3634L13.5168 16.9536L12.2785 12.3478Z" fill="url(#paint2_linear_166824_17432)" fill-opacity="0.88"/>
<path d="M10.8012 13.1997C10.5476 13.2647 10.2817 13.2993 10.0077 13.2993C9.71423 13.2993 9.42999 13.2596 9.16016 13.1853L8.03556 17.3682L9.57028 17.778L10.8012 13.1997Z" fill="url(#paint3_linear_166824_17432)" fill-opacity="0.88"/>
<path d="M9.1059 13.17C8.56755 13.0115 8.08872 12.7148 7.71084 12.321L4.61547 15.4058L5.73897 16.5255L9.1059 13.17Z" fill="url(#paint4_linear_166824_17432)" fill-opacity="0.88"/>
<path d="M7.68493 12.2937C7.31352 11.8974 7.04299 11.406 6.91422 10.8602L2.6381 12.0021L3.04933 13.5316L7.68493 12.2937Z" fill="url(#paint5_linear_166824_17432)" fill-opacity="0.88"/>
<defs>
<linearGradient id="paint0_linear_166824_17432" x1="9.99995" y1="2.22241" x2="9.99995" y2="25.8102" gradientUnits="userSpaceOnUse">
<stop offset="0.313079" stop-color="white"/>
<stop offset="1" stop-color="white" stop-opacity="0"/>
</linearGradient>
<linearGradient id="paint1_linear_166824_17432" x1="9.99995" y1="2.22241" x2="9.99995" y2="25.8102" gradientUnits="userSpaceOnUse">
<stop offset="0.313079" stop-color="white"/>
<stop offset="1" stop-color="white" stop-opacity="0"/>
</linearGradient>
<linearGradient id="paint2_linear_166824_17432" x1="9.99995" y1="2.22241" x2="9.99995" y2="25.8102" gradientUnits="userSpaceOnUse">
<stop offset="0.313079" stop-color="white"/>
<stop offset="1" stop-color="white" stop-opacity="0"/>
</linearGradient>
<linearGradient id="paint3_linear_166824_17432" x1="9.99995" y1="2.22241" x2="9.99995" y2="25.8102" gradientUnits="userSpaceOnUse">
<stop offset="0.313079" stop-color="white"/>
<stop offset="1" stop-color="white" stop-opacity="0"/>
</linearGradient>
<linearGradient id="paint4_linear_166824_17432" x1="9.99995" y1="2.22241" x2="9.99995" y2="25.8102" gradientUnits="userSpaceOnUse">
<stop offset="0.313079" stop-color="white"/>
<stop offset="1" stop-color="white" stop-opacity="0"/>
</linearGradient>
<linearGradient id="paint5_linear_166824_17432" x1="9.99995" y1="2.22241" x2="9.99995" y2="25.8102" gradientUnits="userSpaceOnUse">
<stop offset="0.313079" stop-color="white"/>
<stop offset="1" stop-color="white" stop-opacity="0"/>
</linearGradient>
</defs>
</svg>
