<svg width="20" height="20" viewBox="0 0 20 20" fill="none" xmlns="http://www.w3.org/2000/svg">
<path d="M12.121 6.81773L7.87897 11.0605C7.80734 11.1297 7.7502 11.2124 7.7109 11.3039C7.67159 11.3954 7.6509 11.4938 7.65003 11.5934C7.64917 11.693 7.66814 11.7918 7.70586 11.8839C7.74357 11.9761 7.79926 12.0599 7.86968 12.1303C7.94009 12.2007 8.02383 12.2564 8.11601 12.2941C8.20818 12.3318 8.30694 12.3508 8.40652 12.3499C8.50611 12.349 8.60452 12.3284 8.69602 12.2891C8.78753 12.2497 8.87029 12.1926 8.93947 12.121L13.1822 7.87898C13.6042 7.45698 13.8413 6.88464 13.8413 6.28785C13.8413 5.69106 13.6042 5.11872 13.1822 4.69673C12.7602 4.27473 12.1879 4.03766 11.5911 4.03766C10.9943 4.03766 10.422 4.27473 9.99997 4.69673L5.75722 8.93948C5.40178 9.28607 5.11869 9.6998 4.92439 10.1566C4.73009 10.6135 4.62843 11.1044 4.62532 11.6008C4.62221 12.0973 4.71771 12.5894 4.90627 13.0487C5.09483 13.5079 5.37271 13.9251 5.72378 14.2762C6.07486 14.6272 6.49213 14.905 6.95141 15.0935C7.41069 15.282 7.90283 15.3774 8.39927 15.3743C8.89572 15.3711 9.38659 15.2694 9.84342 15.075C10.3002 14.8806 10.7139 14.5975 11.0605 14.242L15.3032 9.99998L16.3637 11.0605L12.121 15.3032C11.6334 15.7908 11.0547 16.1775 10.4177 16.4413C9.78067 16.7052 9.09795 16.841 8.40847 16.841C7.719 16.841 7.03627 16.7052 6.39928 16.4413C5.76229 16.1775 5.1835 15.7908 4.69597 15.3032C4.20844 14.8157 3.82171 14.2369 3.55786 13.5999C3.29401 12.9629 3.1582 12.2802 3.1582 11.5907C3.1582 10.9013 3.29401 10.2185 3.55786 9.58154C3.82171 8.94454 4.20844 8.36576 4.69597 7.87823L8.93947 3.63623C9.64673 2.95313 10.594 2.57515 11.5772 2.5837C12.5605 2.59224 13.501 2.98663 14.1963 3.68191C14.8916 4.37719 15.286 5.31773 15.2945 6.30097C15.303 7.28421 14.9251 8.23147 14.242 8.93873L9.99997 13.183C9.79097 13.3919 9.54286 13.5577 9.26981 13.6707C8.99676 13.7838 8.70412 13.842 8.40858 13.8419C8.11305 13.8419 7.82041 13.7837 7.54739 13.6705C7.27436 13.5574 7.0263 13.3916 6.81735 13.1826C6.6084 12.9736 6.44266 12.7255 6.32959 12.4524C6.21653 12.1794 6.15836 11.8867 6.15839 11.5912C6.15843 11.2957 6.21667 11.003 6.3298 10.73C6.44293 10.457 6.60872 10.2089 6.81772 9.99998L11.0605 5.75723L12.121 6.81773Z" fill="#A4A4A4"/>
</svg>
