<svg width="18" height="18" viewBox="0 0 18 18" fill="none" xmlns="http://www.w3.org/2000/svg">
<path d="M12.375 2.92501H15.075C15.254 2.92501 15.4257 2.99613 15.5523 3.12272C15.6789 3.2493 15.75 3.42099 15.75 3.60001V14.4C15.75 14.579 15.6789 14.7507 15.5523 14.8773C15.4257 15.0039 15.254 15.075 15.075 15.075H2.925C2.74598 15.075 2.57429 15.0039 2.4477 14.8773C2.32112 14.7507 2.25 14.579 2.25 14.4V3.60001C2.25 3.42099 2.32112 3.2493 2.4477 3.12272C2.57429 2.99613 2.74598 2.92501 2.925 2.92501H5.625V1.57501H6.975V2.92501H11.025V1.57501H12.375V2.92501ZM11.025 4.27501H6.975V5.62501H5.625V4.27501H3.6V6.97501H14.4V4.27501H12.375V5.62501H11.025V4.27501ZM14.4 8.32501H3.6V13.725H14.4V8.32501Z" fill="#A4A4A4"/>
</svg>
