<svg width="18" height="18" viewBox="0 0 18 18" fill="none" xmlns="http://www.w3.org/2000/svg">
<path d="M7.65 2.92499H10.35C11.7822 2.92499 13.1557 3.49391 14.1684 4.50661C15.1811 5.51931 15.75 6.89282 15.75 8.32499C15.75 9.75716 15.1811 11.1307 14.1684 12.1434C13.1557 13.1561 11.7822 13.725 10.35 13.725V16.0875C6.975 14.7375 2.25 12.7125 2.25 8.32499C2.25 6.89282 2.81893 5.51931 3.83162 4.50661C4.84432 3.49391 6.21783 2.92499 7.65 2.92499V2.92499ZM9 12.375H10.35C10.8819 12.375 11.4085 12.2702 11.8999 12.0667C12.3912 11.8632 12.8377 11.5648 13.2138 11.1888C13.5899 10.8127 13.8882 10.3662 14.0917 9.87486C14.2952 9.38349 14.4 8.85684 14.4 8.32499C14.4 7.79313 14.2952 7.26649 14.0917 6.77512C13.8882 6.28375 13.5899 5.83728 13.2138 5.46121C12.8377 5.08513 12.3912 4.78681 11.8999 4.58328C11.4085 4.37974 10.8819 4.27499 10.35 4.27499H7.65C6.57587 4.27499 5.54574 4.70168 4.78622 5.46121C4.0267 6.22073 3.6 7.25086 3.6 8.32499C3.6 10.7617 5.26185 12.352 9 14.049V12.375Z" fill="#A4A4A4"/>
</svg>
