<svg width="18" height="18" viewBox="0 0 18 18" fill="none" xmlns="http://www.w3.org/2000/svg">
<path d="M14.4 15.75H3.60005C3.42103 15.75 3.24934 15.6789 3.12275 15.5523C2.99616 15.4257 2.92505 15.254 2.92505 15.075V2.925C2.92505 2.74598 2.99616 2.57429 3.12275 2.4477C3.24934 2.32112 3.42103 2.25 3.60005 2.25H14.4C14.5791 2.25 14.7508 2.32112 14.8773 2.4477C15.0039 2.57429 15.075 2.74598 15.075 2.925V15.075C15.075 15.254 15.0039 15.4257 14.8773 15.5523C14.7508 15.6789 14.5791 15.75 14.4 15.75ZM13.725 14.4V3.6H4.27505V14.4H13.725ZM6.30005 5.625H11.7V6.975H6.30005V5.625ZM6.30005 8.325H11.7V9.675H6.30005V8.325ZM6.30005 11.025H9.67505V12.375H6.30005V11.025Z" fill="#A4A4A4"/>
</svg>
