<svg width="18" height="18" viewBox="0 0 18 18" fill="none" xmlns="http://www.w3.org/2000/svg">
<path d="M8.9998 2.92499C8.44293 2.92499 7.9873 3.38061 7.9873 3.93749C7.9873 4.49436 8.44293 4.94999 8.9998 4.94999C9.55668 4.94999 10.0123 4.49436 10.0123 3.93749C10.0123 3.38061 9.55668 2.92499 8.9998 2.92499ZM8.9998 13.05C8.44293 13.05 7.9873 13.5056 7.9873 14.0625C7.9873 14.6194 8.44293 15.075 8.9998 15.075C9.55668 15.075 10.0123 14.6194 10.0123 14.0625C10.0123 13.5056 9.55668 13.05 8.9998 13.05ZM8.9998 7.98749C8.44293 7.98749 7.9873 8.44311 7.9873 8.99999C7.9873 9.55686 8.44293 10.0125 8.9998 10.0125C9.55668 10.0125 10.0123 9.55686 10.0123 8.99999C10.0123 8.44311 9.55668 7.98749 8.9998 7.98749Z" fill="#5C5C5C"/>
</svg>
