<svg width="20" height="20" viewBox="0 0 20 20" fill="none" xmlns="http://www.w3.org/2000/svg">
<path d="M13.4471 1.78001L18.2073 6.53951C18.2564 6.58848 18.2909 6.65008 18.3071 6.71748C18.3232 6.78489 18.3204 6.85545 18.2988 6.92133C18.2773 6.98722 18.238 7.04585 18.1851 7.09072C18.1323 7.13559 18.0681 7.16494 17.9996 7.17551L16.8941 7.34801L12.6521 3.10601L12.8111 1.99226C12.821 1.92338 12.8498 1.85862 12.8944 1.80521C12.939 1.7518 12.9976 1.71184 13.0636 1.68982C13.1296 1.66779 13.2004 1.66456 13.2681 1.68049C13.3358 1.69642 13.3978 1.73087 13.4471 1.78001V1.78001ZM4.44633 16.1125C7.23783 13.6143 10.4426 12.8665 13.9286 11.9725L14.2631 8.95901L11.0403 5.73626L8.02683 6.07076C7.13283 9.55676 6.38508 12.7608 3.88683 15.553L2.84058 14.5075C4.96158 12.0325 5.75808 9.29276 6.81783 4.69676L11.5908 4.16651L15.8336 8.40926L15.3033 13.1823C10.7073 14.2428 7.96683 15.0385 5.49258 17.1595L4.44633 16.1125ZM8.40933 11.59C8.26606 11.4516 8.15179 11.2861 8.07317 11.1031C7.99456 10.9201 7.95318 10.7233 7.95145 10.5241C7.94972 10.3249 7.98767 10.1274 8.06309 9.94308C8.13851 9.75873 8.24989 9.59125 8.39073 9.45041C8.53157 9.30957 8.69905 9.1982 8.8834 9.12277C9.06774 9.04735 9.26526 9.0094 9.46443 9.01113C9.6636 9.01286 9.86043 9.05424 10.0434 9.13285C10.2264 9.21147 10.392 9.32574 10.5303 9.46901C10.7998 9.75255 10.9479 10.1302 10.9429 10.5213C10.938 10.9124 10.7804 11.2862 10.5039 11.5628C10.2273 11.8395 9.85365 11.9972 9.46251 12.0022C9.07137 12.0073 8.69372 11.8594 8.41008 11.59H8.40933Z" fill="#335CFF"/>
</svg>
