<svg width="88" height="88" viewBox="0 0 88 88" fill="none" xmlns="http://www.w3.org/2000/svg">
<path d="M3.03448 0H0V3.03448H3.03448V0Z" fill="#171717"/>
<path d="M6.06897 0H3.03448V3.03448H6.06897V0Z" fill="#171717"/>
<path d="M9.10345 0H6.06897V3.03448H9.10345V0Z" fill="#171717"/>
<path d="M12.1379 0H9.10345V3.03448H12.1379V0Z" fill="#171717"/>
<path d="M15.1724 0H12.1379V3.03448H15.1724V0Z" fill="#171717"/>
<path d="M18.2069 0H15.1724V3.03448H18.2069V0Z" fill="#171717"/>
<path d="M21.2414 0H18.2069V3.03448H21.2414V0Z" fill="#171717"/>
<path d="M27.3103 0H24.2759V3.03448H27.3103V0Z" fill="#171717"/>
<path d="M33.3793 0H30.3448V3.03448H33.3793V0Z" fill="#171717"/>
<path d="M48.5517 0H45.5172V3.03448H48.5517V0Z" fill="#171717"/>
<path d="M51.5862 0H48.5517V3.03448H51.5862V0Z" fill="#171717"/>
<path d="M57.6552 0H54.6207V3.03448H57.6552V0Z" fill="#171717"/>
<path d="M63.7241 0H60.6897V3.03448H63.7241V0Z" fill="#171717"/>
<path d="M69.7931 0H66.7586V3.03448H69.7931V0Z" fill="#171717"/>
<path d="M72.8276 0H69.7931V3.03448H72.8276V0Z" fill="#171717"/>
<path d="M75.8621 0H72.8276V3.03448H75.8621V0Z" fill="#171717"/>
<path d="M78.8966 0H75.8621V3.03448H78.8966V0Z" fill="#171717"/>
<path d="M81.931 0H78.8966V3.03448H81.931V0Z" fill="#171717"/>
<path d="M84.9655 0H81.931V3.03448H84.9655V0Z" fill="#171717"/>
<path d="M88 0H84.9655V3.03448H88V0Z" fill="#171717"/>
<path d="M3.03448 3.03448H0V6.06897H3.03448V3.03448Z" fill="#171717"/>
<path d="M21.2414 3.03448H18.2069V6.06897H21.2414V3.03448Z" fill="#171717"/>
<path d="M30.3448 3.03448H27.3103V6.06897H30.3448V3.03448Z" fill="#171717"/>
<path d="M33.3793 3.03448H30.3448V6.06897H33.3793V3.03448Z" fill="#171717"/>
<path d="M36.4138 3.03448H33.3793V6.06897H36.4138V3.03448Z" fill="#171717"/>
<path d="M39.4483 3.03448H36.4138V6.06897H39.4483V3.03448Z" fill="#171717"/>
<path d="M45.5172 3.03448H42.4828V6.06897H45.5172V3.03448Z" fill="#171717"/>
<path d="M48.5517 3.03448H45.5172V6.06897H48.5517V3.03448Z" fill="#171717"/>
<path d="M69.7931 3.03448H66.7586V6.06897H69.7931V3.03448Z" fill="#171717"/>
<path d="M88 3.03448H84.9655V6.06897H88V3.03448Z" fill="#171717"/>
<path d="M3.03448 6.06897H0V9.10345H3.03448V6.06897Z" fill="#171717"/>
<path d="M9.10345 6.06897H6.06897V9.10345H9.10345V6.06897Z" fill="#171717"/>
<path d="M12.1379 6.06897H9.10345V9.10345H12.1379V6.06897Z" fill="#171717"/>
<path d="M15.1724 6.06897H12.1379V9.10345H15.1724V6.06897Z" fill="#171717"/>
<path d="M21.2414 6.06897H18.2069V9.10345H21.2414V6.06897Z" fill="#171717"/>
<path d="M33.3793 6.06897H30.3448V9.10345H33.3793V6.06897Z" fill="#171717"/>
<path d="M36.4138 6.06897H33.3793V9.10345H36.4138V6.06897Z" fill="#171717"/>
<path d="M39.4483 6.06897H36.4138V9.10345H39.4483V6.06897Z" fill="#171717"/>
<path d="M42.4828 6.06897H39.4483V9.10345H42.4828V6.06897Z" fill="#171717"/>
<path d="M48.5517 6.06897H45.5172V9.10345H48.5517V6.06897Z" fill="#171717"/>
<path d="M51.5862 6.06897H48.5517V9.10345H51.5862V6.06897Z" fill="#171717"/>
<path d="M60.6897 6.06897H57.6552V9.10345H60.6897V6.06897Z" fill="#171717"/>
<path d="M63.7241 6.06897H60.6897V9.10345H63.7241V6.06897Z" fill="#171717"/>
<path d="M69.7931 6.06897H66.7586V9.10345H69.7931V6.06897Z" fill="#171717"/>
<path d="M75.8621 6.06897H72.8276V9.10345H75.8621V6.06897Z" fill="#171717"/>
<path d="M78.8966 6.06897H75.8621V9.10345H78.8966V6.06897Z" fill="#171717"/>
<path d="M81.931 6.06897H78.8966V9.10345H81.931V6.06897Z" fill="#171717"/>
<path d="M88 6.06897H84.9655V9.10345H88V6.06897Z" fill="#171717"/>
<path d="M3.03448 9.10345H0V12.1379H3.03448V9.10345Z" fill="#171717"/>
<path d="M9.10345 9.10345H6.06897V12.1379H9.10345V9.10345Z" fill="#171717"/>
<path d="M12.1379 9.10345H9.10345V12.1379H12.1379V9.10345Z" fill="#171717"/>
<path d="M15.1724 9.10345H12.1379V12.1379H15.1724V9.10345Z" fill="#171717"/>
<path d="M21.2414 9.10345H18.2069V12.1379H21.2414V9.10345Z" fill="#171717"/>
<path d="M27.3103 9.10345H24.2759V12.1379H27.3103V9.10345Z" fill="#171717"/>
<path d="M30.3448 9.10345H27.3103V12.1379H30.3448V9.10345Z" fill="#171717"/>
<path d="M33.3793 9.10345H30.3448V12.1379H33.3793V9.10345Z" fill="#171717"/>
<path d="M36.4138 9.10345H33.3793V12.1379H36.4138V9.10345Z" fill="#171717"/>
<path d="M42.4828 9.10345H39.4483V12.1379H42.4828V9.10345Z" fill="#171717"/>
<path d="M51.5862 9.10345H48.5517V12.1379H51.5862V9.10345Z" fill="#171717"/>
<path d="M60.6897 9.10345H57.6552V12.1379H60.6897V9.10345Z" fill="#171717"/>
<path d="M69.7931 9.10345H66.7586V12.1379H69.7931V9.10345Z" fill="#171717"/>
<path d="M75.8621 9.10345H72.8276V12.1379H75.8621V9.10345Z" fill="#171717"/>
<path d="M78.8966 9.10345H75.8621V12.1379H78.8966V9.10345Z" fill="#171717"/>
<path d="M81.931 9.10345H78.8966V12.1379H81.931V9.10345Z" fill="#171717"/>
<path d="M88 9.10345H84.9655V12.1379H88V9.10345Z" fill="#171717"/>
<path d="M3.03448 12.1379H0V15.1724H3.03448V12.1379Z" fill="#171717"/>
<path d="M9.10345 12.1379H6.06897V15.1724H9.10345V12.1379Z" fill="#171717"/>
<path d="M12.1379 12.1379H9.10345V15.1724H12.1379V12.1379Z" fill="#171717"/>
<path d="M15.1724 12.1379H12.1379V15.1724H15.1724V12.1379Z" fill="#171717"/>
<path d="M21.2414 12.1379H18.2069V15.1724H21.2414V12.1379Z" fill="#171717"/>
<path d="M42.4828 12.1379H39.4483V15.1724H42.4828V12.1379Z" fill="#171717"/>
<path d="M45.5172 12.1379H42.4828V15.1724H45.5172V12.1379Z" fill="#171717"/>
<path d="M48.5517 12.1379H45.5172V15.1724H48.5517V12.1379Z" fill="#171717"/>
<path d="M54.6207 12.1379H51.5862V15.1724H54.6207V12.1379Z" fill="#171717"/>
<path d="M69.7931 12.1379H66.7586V15.1724H69.7931V12.1379Z" fill="#171717"/>
<path d="M75.8621 12.1379H72.8276V15.1724H75.8621V12.1379Z" fill="#171717"/>
<path d="M78.8966 12.1379H75.8621V15.1724H78.8966V12.1379Z" fill="#171717"/>
<path d="M81.931 12.1379H78.8966V15.1724H81.931V12.1379Z" fill="#171717"/>
<path d="M88 12.1379H84.9655V15.1724H88V12.1379Z" fill="#171717"/>
<path d="M3.03448 15.1724H0V18.2069H3.03448V15.1724Z" fill="#171717"/>
<path d="M21.2414 15.1724H18.2069V18.2069H21.2414V15.1724Z" fill="#171717"/>
<path d="M27.3103 15.1724H24.2759V18.2069H27.3103V15.1724Z" fill="#171717"/>
<path d="M30.3448 15.1724H27.3103V18.2069H30.3448V15.1724Z" fill="#171717"/>
<path d="M33.3793 15.1724H30.3448V18.2069H33.3793V15.1724Z" fill="#171717"/>
<path d="M36.4138 15.1724H33.3793V18.2069H36.4138V15.1724Z" fill="#171717"/>
<path d="M39.4483 15.1724H36.4138V18.2069H39.4483V15.1724Z" fill="#171717"/>
<path d="M42.4828 15.1724H39.4483V18.2069H42.4828V15.1724Z" fill="#171717"/>
<path d="M48.5517 15.1724H45.5172V18.2069H48.5517V15.1724Z" fill="#171717"/>
<path d="M51.5862 15.1724H48.5517V18.2069H51.5862V15.1724Z" fill="#171717"/>
<path d="M69.7931 15.1724H66.7586V18.2069H69.7931V15.1724Z" fill="#171717"/>
<path d="M88 15.1724H84.9655V18.2069H88V15.1724Z" fill="#171717"/>
<path d="M3.03448 18.2069H0V21.2414H3.03448V18.2069Z" fill="#171717"/>
<path d="M6.06897 18.2069H3.03448V21.2414H6.06897V18.2069Z" fill="#171717"/>
<path d="M9.10345 18.2069H6.06897V21.2414H9.10345V18.2069Z" fill="#171717"/>
<path d="M12.1379 18.2069H9.10345V21.2414H12.1379V18.2069Z" fill="#171717"/>
<path d="M15.1724 18.2069H12.1379V21.2414H15.1724V18.2069Z" fill="#171717"/>
<path d="M18.2069 18.2069H15.1724V21.2414H18.2069V18.2069Z" fill="#171717"/>
<path d="M21.2414 18.2069H18.2069V21.2414H21.2414V18.2069Z" fill="#171717"/>
<path d="M27.3103 18.2069H24.2759V21.2414H27.3103V18.2069Z" fill="#171717"/>
<path d="M33.3793 18.2069H30.3448V21.2414H33.3793V18.2069Z" fill="#171717"/>
<path d="M39.4483 18.2069H36.4138V21.2414H39.4483V18.2069Z" fill="#171717"/>
<path d="M45.5172 18.2069H42.4828V21.2414H45.5172V18.2069Z" fill="#171717"/>
<path d="M51.5862 18.2069H48.5517V21.2414H51.5862V18.2069Z" fill="#171717"/>
<path d="M57.6552 18.2069H54.6207V21.2414H57.6552V18.2069Z" fill="#171717"/>
<path d="M63.7241 18.2069H60.6897V21.2414H63.7241V18.2069Z" fill="#171717"/>
<path d="M69.7931 18.2069H66.7586V21.2414H69.7931V18.2069Z" fill="#171717"/>
<path d="M72.8276 18.2069H69.7931V21.2414H72.8276V18.2069Z" fill="#171717"/>
<path d="M75.8621 18.2069H72.8276V21.2414H75.8621V18.2069Z" fill="#171717"/>
<path d="M78.8966 18.2069H75.8621V21.2414H78.8966V18.2069Z" fill="#171717"/>
<path d="M81.931 18.2069H78.8966V21.2414H81.931V18.2069Z" fill="#171717"/>
<path d="M84.9655 18.2069H81.931V21.2414H84.9655V18.2069Z" fill="#171717"/>
<path d="M88 18.2069H84.9655V21.2414H88V18.2069Z" fill="#171717"/>
<path d="M30.3448 21.2414H27.3103V24.2759H30.3448V21.2414Z" fill="#171717"/>
<path d="M45.5172 21.2414H42.4828V24.2759H45.5172V21.2414Z" fill="#171717"/>
<path d="M54.6207 21.2414H51.5862V24.2759H54.6207V21.2414Z" fill="#171717"/>
<path d="M57.6552 21.2414H54.6207V24.2759H57.6552V21.2414Z" fill="#171717"/>
<path d="M60.6897 21.2414H57.6552V24.2759H60.6897V21.2414Z" fill="#171717"/>
<path d="M63.7241 21.2414H60.6897V24.2759H63.7241V21.2414Z" fill="#171717"/>
<path d="M18.2069 24.2759H15.1724V27.3103H18.2069V24.2759Z" fill="#171717"/>
<path d="M21.2414 24.2759H18.2069V27.3103H21.2414V24.2759Z" fill="#171717"/>
<path d="M27.3103 24.2759H24.2759V27.3103H27.3103V24.2759Z" fill="#171717"/>
<path d="M30.3448 24.2759H27.3103V27.3103H30.3448V24.2759Z" fill="#171717"/>
<path d="M36.4138 24.2759H33.3793V27.3103H36.4138V24.2759Z" fill="#171717"/>
<path d="M39.4483 24.2759H36.4138V27.3103H39.4483V24.2759Z" fill="#171717"/>
<path d="M45.5172 24.2759H42.4828V27.3103H45.5172V24.2759Z" fill="#171717"/>
<path d="M48.5517 24.2759H45.5172V27.3103H48.5517V24.2759Z" fill="#171717"/>
<path d="M51.5862 24.2759H48.5517V27.3103H51.5862V24.2759Z" fill="#171717"/>
<path d="M54.6207 24.2759H51.5862V27.3103H54.6207V24.2759Z" fill="#171717"/>
<path d="M66.7586 24.2759H63.7241V27.3103H66.7586V24.2759Z" fill="#171717"/>
<path d="M72.8276 24.2759H69.7931V27.3103H72.8276V24.2759Z" fill="#171717"/>
<path d="M78.8966 24.2759H75.8621V27.3103H78.8966V24.2759Z" fill="#171717"/>
<path d="M88 24.2759H84.9655V27.3103H88V24.2759Z" fill="#171717"/>
<path d="M3.03448 27.3103H0V30.3448H3.03448V27.3103Z" fill="#171717"/>
<path d="M12.1379 27.3103H9.10345V30.3448H12.1379V27.3103Z" fill="#171717"/>
<path d="M24.2759 27.3103H21.2414V30.3448H24.2759V27.3103Z" fill="#171717"/>
<path d="M27.3103 27.3103H24.2759V30.3448H27.3103V27.3103Z" fill="#171717"/>
<path d="M30.3448 27.3103H27.3103V30.3448H30.3448V27.3103Z" fill="#171717"/>
<path d="M48.5517 27.3103H45.5172V30.3448H48.5517V27.3103Z" fill="#171717"/>
<path d="M54.6207 27.3103H51.5862V30.3448H54.6207V27.3103Z" fill="#171717"/>
<path d="M60.6897 27.3103H57.6552V30.3448H60.6897V27.3103Z" fill="#171717"/>
<path d="M66.7586 27.3103H63.7241V30.3448H66.7586V27.3103Z" fill="#171717"/>
<path d="M3.03448 30.3448H0V33.3793H3.03448V30.3448Z" fill="#171717"/>
<path d="M12.1379 30.3448H9.10345V33.3793H12.1379V30.3448Z" fill="#171717"/>
<path d="M15.1724 30.3448H12.1379V33.3793H15.1724V30.3448Z" fill="#171717"/>
<path d="M21.2414 30.3448H18.2069V33.3793H21.2414V30.3448Z" fill="#171717"/>
<path d="M24.2759 30.3448H21.2414V33.3793H24.2759V30.3448Z" fill="#171717"/>
<path d="M27.3103 30.3448H24.2759V33.3793H27.3103V30.3448Z" fill="#171717"/>
<path d="M33.3793 30.3448H30.3448V33.3793H33.3793V30.3448Z" fill="#171717"/>
<path d="M39.4483 30.3448H36.4138V33.3793H39.4483V30.3448Z" fill="#171717"/>
<path d="M48.5517 30.3448H45.5172V33.3793H48.5517V30.3448Z" fill="#171717"/>
<path d="M57.6552 30.3448H54.6207V33.3793H57.6552V30.3448Z" fill="#171717"/>
<path d="M63.7241 30.3448H60.6897V33.3793H63.7241V30.3448Z" fill="#171717"/>
<path d="M69.7931 30.3448H66.7586V33.3793H69.7931V30.3448Z" fill="#171717"/>
<path d="M75.8621 30.3448H72.8276V33.3793H75.8621V30.3448Z" fill="#171717"/>
<path d="M81.931 30.3448H78.8966V33.3793H81.931V30.3448Z" fill="#171717"/>
<path d="M88 30.3448H84.9655V33.3793H88V30.3448Z" fill="#171717"/>
<path d="M18.2069 33.3793H15.1724V36.4138H18.2069V33.3793Z" fill="#171717"/>
<path d="M33.3793 33.3793H30.3448V36.4138H33.3793V33.3793Z" fill="#171717"/>
<path d="M42.4828 33.3793H39.4483V36.4138H42.4828V33.3793Z" fill="#171717"/>
<path d="M45.5172 33.3793H42.4828V36.4138H45.5172V33.3793Z" fill="#171717"/>
<path d="M51.5862 33.3793H48.5517V36.4138H51.5862V33.3793Z" fill="#171717"/>
<path d="M57.6552 33.3793H54.6207V36.4138H57.6552V33.3793Z" fill="#171717"/>
<path d="M60.6897 33.3793H57.6552V36.4138H60.6897V33.3793Z" fill="#171717"/>
<path d="M63.7241 33.3793H60.6897V36.4138H63.7241V33.3793Z" fill="#171717"/>
<path d="M66.7586 33.3793H63.7241V36.4138H66.7586V33.3793Z" fill="#171717"/>
<path d="M72.8276 33.3793H69.7931V36.4138H72.8276V33.3793Z" fill="#171717"/>
<path d="M75.8621 33.3793H72.8276V36.4138H75.8621V33.3793Z" fill="#171717"/>
<path d="M9.10345 36.4138H6.06897V39.4483H9.10345V36.4138Z" fill="#171717"/>
<path d="M21.2414 36.4138H18.2069V39.4483H21.2414V36.4138Z" fill="#171717"/>
<path d="M27.3103 36.4138H24.2759V39.4483H27.3103V36.4138Z" fill="#171717"/>
<path d="M30.3448 36.4138H27.3103V39.4483H30.3448V36.4138Z" fill="#171717"/>
<path d="M33.3793 36.4138H30.3448V39.4483H33.3793V36.4138Z" fill="#171717"/>
<path d="M36.4138 36.4138H33.3793V39.4483H36.4138V36.4138Z" fill="#171717"/>
<path d="M39.4483 36.4138H36.4138V39.4483H39.4483V36.4138Z" fill="#171717"/>
<path d="M45.5172 36.4138H42.4828V39.4483H45.5172V36.4138Z" fill="#171717"/>
<path d="M48.5517 36.4138H45.5172V39.4483H48.5517V36.4138Z" fill="#171717"/>
<path d="M57.6552 36.4138H54.6207V39.4483H57.6552V36.4138Z" fill="#171717"/>
<path d="M60.6897 36.4138H57.6552V39.4483H60.6897V36.4138Z" fill="#171717"/>
<path d="M69.7931 36.4138H66.7586V39.4483H69.7931V36.4138Z" fill="#171717"/>
<path d="M75.8621 36.4138H72.8276V39.4483H75.8621V36.4138Z" fill="#171717"/>
<path d="M81.931 36.4138H78.8966V39.4483H81.931V36.4138Z" fill="#171717"/>
<path d="M88 36.4138H84.9655V39.4483H88V36.4138Z" fill="#171717"/>
<path d="M3.03448 39.4483H0V42.4828H3.03448V39.4483Z" fill="#171717"/>
<path d="M6.06897 39.4483H3.03448V42.4828H6.06897V39.4483Z" fill="#171717"/>
<path d="M9.10345 39.4483H6.06897V42.4828H9.10345V39.4483Z" fill="#171717"/>
<path d="M12.1379 39.4483H9.10345V42.4828H12.1379V39.4483Z" fill="#171717"/>
<path d="M15.1724 39.4483H12.1379V42.4828H15.1724V39.4483Z" fill="#171717"/>
<path d="M18.2069 39.4483H15.1724V42.4828H18.2069V39.4483Z" fill="#171717"/>
<path d="M48.5517 39.4483H45.5172V42.4828H48.5517V39.4483Z" fill="#171717"/>
<path d="M51.5862 39.4483H48.5517V42.4828H51.5862V39.4483Z" fill="#171717"/>
<path d="M57.6552 39.4483H54.6207V42.4828H57.6552V39.4483Z" fill="#171717"/>
<path d="M60.6897 39.4483H57.6552V42.4828H60.6897V39.4483Z" fill="#171717"/>
<path d="M66.7586 39.4483H63.7241V42.4828H66.7586V39.4483Z" fill="#171717"/>
<path d="M69.7931 39.4483H66.7586V42.4828H69.7931V39.4483Z" fill="#171717"/>
<path d="M72.8276 39.4483H69.7931V42.4828H72.8276V39.4483Z" fill="#171717"/>
<path d="M84.9655 39.4483H81.931V42.4828H84.9655V39.4483Z" fill="#171717"/>
<path d="M88 39.4483H84.9655V42.4828H88V39.4483Z" fill="#171717"/>
<path d="M6.06897 42.4828H3.03448V45.5172H6.06897V42.4828Z" fill="#171717"/>
<path d="M12.1379 42.4828H9.10345V45.5172H12.1379V42.4828Z" fill="#171717"/>
<path d="M15.1724 42.4828H12.1379V45.5172H15.1724V42.4828Z" fill="#171717"/>
<path d="M18.2069 42.4828H15.1724V45.5172H18.2069V42.4828Z" fill="#171717"/>
<path d="M21.2414 42.4828H18.2069V45.5172H21.2414V42.4828Z" fill="#171717"/>
<path d="M24.2759 42.4828H21.2414V45.5172H24.2759V42.4828Z" fill="#171717"/>
<path d="M30.3448 42.4828H27.3103V45.5172H30.3448V42.4828Z" fill="#171717"/>
<path d="M36.4138 42.4828H33.3793V45.5172H36.4138V42.4828Z" fill="#171717"/>
<path d="M48.5517 42.4828H45.5172V45.5172H48.5517V42.4828Z" fill="#171717"/>
<path d="M51.5862 42.4828H48.5517V45.5172H51.5862V42.4828Z" fill="#171717"/>
<path d="M63.7241 42.4828H60.6897V45.5172H63.7241V42.4828Z" fill="#171717"/>
<path d="M69.7931 42.4828H66.7586V45.5172H69.7931V42.4828Z" fill="#171717"/>
<path d="M75.8621 42.4828H72.8276V45.5172H75.8621V42.4828Z" fill="#171717"/>
<path d="M78.8966 42.4828H75.8621V45.5172H78.8966V42.4828Z" fill="#171717"/>
<path d="M88 42.4828H84.9655V45.5172H88V42.4828Z" fill="#171717"/>
<path d="M6.06897 45.5172H3.03448V48.5517H6.06897V45.5172Z" fill="#171717"/>
<path d="M12.1379 45.5172H9.10345V48.5517H12.1379V45.5172Z" fill="#171717"/>
<path d="M27.3103 45.5172H24.2759V48.5517H27.3103V45.5172Z" fill="#171717"/>
<path d="M30.3448 45.5172H27.3103V48.5517H30.3448V45.5172Z" fill="#171717"/>
<path d="M36.4138 45.5172H33.3793V48.5517H36.4138V45.5172Z" fill="#171717"/>
<path d="M42.4828 45.5172H39.4483V48.5517H42.4828V45.5172Z" fill="#171717"/>
<path d="M45.5172 45.5172H42.4828V48.5517H45.5172V45.5172Z" fill="#171717"/>
<path d="M51.5862 45.5172H48.5517V48.5517H51.5862V45.5172Z" fill="#171717"/>
<path d="M54.6207 45.5172H51.5862V48.5517H54.6207V45.5172Z" fill="#171717"/>
<path d="M60.6897 45.5172H57.6552V48.5517H60.6897V45.5172Z" fill="#171717"/>
<path d="M66.7586 45.5172H63.7241V48.5517H66.7586V45.5172Z" fill="#171717"/>
<path d="M69.7931 45.5172H66.7586V48.5517H69.7931V45.5172Z" fill="#171717"/>
<path d="M75.8621 45.5172H72.8276V48.5517H75.8621V45.5172Z" fill="#171717"/>
<path d="M78.8966 45.5172H75.8621V48.5517H78.8966V45.5172Z" fill="#171717"/>
<path d="M84.9655 45.5172H81.931V48.5517H84.9655V45.5172Z" fill="#171717"/>
<path d="M3.03448 48.5517H0V51.5862H3.03448V48.5517Z" fill="#171717"/>
<path d="M9.10345 48.5517H6.06897V51.5862H9.10345V48.5517Z" fill="#171717"/>
<path d="M15.1724 48.5517H12.1379V51.5862H15.1724V48.5517Z" fill="#171717"/>
<path d="M21.2414 48.5517H18.2069V51.5862H21.2414V48.5517Z" fill="#171717"/>
<path d="M33.3793 48.5517H30.3448V51.5862H33.3793V48.5517Z" fill="#171717"/>
<path d="M39.4483 48.5517H36.4138V51.5862H39.4483V48.5517Z" fill="#171717"/>
<path d="M45.5172 48.5517H42.4828V51.5862H45.5172V48.5517Z" fill="#171717"/>
<path d="M48.5517 48.5517H45.5172V51.5862H48.5517V48.5517Z" fill="#171717"/>
<path d="M51.5862 48.5517H48.5517V51.5862H51.5862V48.5517Z" fill="#171717"/>
<path d="M60.6897 48.5517H57.6552V51.5862H60.6897V48.5517Z" fill="#171717"/>
<path d="M63.7241 48.5517H60.6897V51.5862H63.7241V48.5517Z" fill="#171717"/>
<path d="M66.7586 48.5517H63.7241V51.5862H66.7586V48.5517Z" fill="#171717"/>
<path d="M72.8276 48.5517H69.7931V51.5862H72.8276V48.5517Z" fill="#171717"/>
<path d="M78.8966 48.5517H75.8621V51.5862H78.8966V48.5517Z" fill="#171717"/>
<path d="M6.06897 51.5862H3.03448V54.6207H6.06897V51.5862Z" fill="#171717"/>
<path d="M9.10345 51.5862H6.06897V54.6207H9.10345V51.5862Z" fill="#171717"/>
<path d="M24.2759 51.5862H21.2414V54.6207H24.2759V51.5862Z" fill="#171717"/>
<path d="M33.3793 51.5862H30.3448V54.6207H33.3793V51.5862Z" fill="#171717"/>
<path d="M39.4483 51.5862H36.4138V54.6207H39.4483V51.5862Z" fill="#171717"/>
<path d="M42.4828 51.5862H39.4483V54.6207H42.4828V51.5862Z" fill="#171717"/>
<path d="M48.5517 51.5862H45.5172V54.6207H48.5517V51.5862Z" fill="#171717"/>
<path d="M51.5862 51.5862H48.5517V54.6207H51.5862V51.5862Z" fill="#171717"/>
<path d="M57.6552 51.5862H54.6207V54.6207H57.6552V51.5862Z" fill="#171717"/>
<path d="M60.6897 51.5862H57.6552V54.6207H60.6897V51.5862Z" fill="#171717"/>
<path d="M69.7931 51.5862H66.7586V54.6207H69.7931V51.5862Z" fill="#171717"/>
<path d="M3.03448 54.6207H0V57.6552H3.03448V54.6207Z" fill="#171717"/>
<path d="M6.06897 54.6207H3.03448V57.6552H6.06897V54.6207Z" fill="#171717"/>
<path d="M9.10345 54.6207H6.06897V57.6552H9.10345V54.6207Z" fill="#171717"/>
<path d="M12.1379 54.6207H9.10345V57.6552H12.1379V54.6207Z" fill="#171717"/>
<path d="M15.1724 54.6207H12.1379V57.6552H15.1724V54.6207Z" fill="#171717"/>
<path d="M21.2414 54.6207H18.2069V57.6552H21.2414V54.6207Z" fill="#171717"/>
<path d="M24.2759 54.6207H21.2414V57.6552H24.2759V54.6207Z" fill="#171717"/>
<path d="M27.3103 54.6207H24.2759V57.6552H27.3103V54.6207Z" fill="#171717"/>
<path d="M42.4828 54.6207H39.4483V57.6552H42.4828V54.6207Z" fill="#171717"/>
<path d="M48.5517 54.6207H45.5172V57.6552H48.5517V54.6207Z" fill="#171717"/>
<path d="M54.6207 54.6207H51.5862V57.6552H54.6207V54.6207Z" fill="#171717"/>
<path d="M57.6552 54.6207H54.6207V57.6552H57.6552V54.6207Z" fill="#171717"/>
<path d="M60.6897 54.6207H57.6552V57.6552H60.6897V54.6207Z" fill="#171717"/>
<path d="M63.7241 54.6207H60.6897V57.6552H63.7241V54.6207Z" fill="#171717"/>
<path d="M72.8276 54.6207H69.7931V57.6552H72.8276V54.6207Z" fill="#171717"/>
<path d="M75.8621 54.6207H72.8276V57.6552H75.8621V54.6207Z" fill="#171717"/>
<path d="M3.03448 57.6552H0V60.6897H3.03448V57.6552Z" fill="#171717"/>
<path d="M18.2069 57.6552H15.1724V60.6897H18.2069V57.6552Z" fill="#171717"/>
<path d="M27.3103 57.6552H24.2759V60.6897H27.3103V57.6552Z" fill="#171717"/>
<path d="M33.3793 57.6552H30.3448V60.6897H33.3793V57.6552Z" fill="#171717"/>
<path d="M36.4138 57.6552H33.3793V60.6897H36.4138V57.6552Z" fill="#171717"/>
<path d="M42.4828 57.6552H39.4483V60.6897H42.4828V57.6552Z" fill="#171717"/>
<path d="M60.6897 57.6552H57.6552V60.6897H60.6897V57.6552Z" fill="#171717"/>
<path d="M78.8966 57.6552H75.8621V60.6897H78.8966V57.6552Z" fill="#171717"/>
<path d="M81.931 57.6552H78.8966V60.6897H81.931V57.6552Z" fill="#171717"/>
<path d="M84.9655 57.6552H81.931V60.6897H84.9655V57.6552Z" fill="#171717"/>
<path d="M9.10345 60.6897H6.06897V63.7241H9.10345V60.6897Z" fill="#171717"/>
<path d="M21.2414 60.6897H18.2069V63.7241H21.2414V60.6897Z" fill="#171717"/>
<path d="M30.3448 60.6897H27.3103V63.7241H30.3448V60.6897Z" fill="#171717"/>
<path d="M33.3793 60.6897H30.3448V63.7241H33.3793V60.6897Z" fill="#171717"/>
<path d="M42.4828 60.6897H39.4483V63.7241H42.4828V60.6897Z" fill="#171717"/>
<path d="M48.5517 60.6897H45.5172V63.7241H48.5517V60.6897Z" fill="#171717"/>
<path d="M51.5862 60.6897H48.5517V63.7241H51.5862V60.6897Z" fill="#171717"/>
<path d="M54.6207 60.6897H51.5862V63.7241H54.6207V60.6897Z" fill="#171717"/>
<path d="M63.7241 60.6897H60.6897V63.7241H63.7241V60.6897Z" fill="#171717"/>
<path d="M66.7586 60.6897H63.7241V63.7241H66.7586V60.6897Z" fill="#171717"/>
<path d="M69.7931 60.6897H66.7586V63.7241H69.7931V60.6897Z" fill="#171717"/>
<path d="M72.8276 60.6897H69.7931V63.7241H72.8276V60.6897Z" fill="#171717"/>
<path d="M75.8621 60.6897H72.8276V63.7241H75.8621V60.6897Z" fill="#171717"/>
<path d="M84.9655 60.6897H81.931V63.7241H84.9655V60.6897Z" fill="#171717"/>
<path d="M88 60.6897H84.9655V63.7241H88V60.6897Z" fill="#171717"/>
<path d="M27.3103 63.7241H24.2759V66.7586H27.3103V63.7241Z" fill="#171717"/>
<path d="M39.4483 63.7241H36.4138V66.7586H39.4483V63.7241Z" fill="#171717"/>
<path d="M45.5172 63.7241H42.4828V66.7586H45.5172V63.7241Z" fill="#171717"/>
<path d="M48.5517 63.7241H45.5172V66.7586H48.5517V63.7241Z" fill="#171717"/>
<path d="M51.5862 63.7241H48.5517V66.7586H51.5862V63.7241Z" fill="#171717"/>
<path d="M54.6207 63.7241H51.5862V66.7586H54.6207V63.7241Z" fill="#171717"/>
<path d="M57.6552 63.7241H54.6207V66.7586H57.6552V63.7241Z" fill="#171717"/>
<path d="M63.7241 63.7241H60.6897V66.7586H63.7241V63.7241Z" fill="#171717"/>
<path d="M75.8621 63.7241H72.8276V66.7586H75.8621V63.7241Z" fill="#171717"/>
<path d="M81.931 63.7241H78.8966V66.7586H81.931V63.7241Z" fill="#171717"/>
<path d="M84.9655 63.7241H81.931V66.7586H84.9655V63.7241Z" fill="#171717"/>
<path d="M3.03448 66.7586H0V69.7931H3.03448V66.7586Z" fill="#171717"/>
<path d="M6.06897 66.7586H3.03448V69.7931H6.06897V66.7586Z" fill="#171717"/>
<path d="M9.10345 66.7586H6.06897V69.7931H9.10345V66.7586Z" fill="#171717"/>
<path d="M12.1379 66.7586H9.10345V69.7931H12.1379V66.7586Z" fill="#171717"/>
<path d="M15.1724 66.7586H12.1379V69.7931H15.1724V66.7586Z" fill="#171717"/>
<path d="M18.2069 66.7586H15.1724V69.7931H18.2069V66.7586Z" fill="#171717"/>
<path d="M21.2414 66.7586H18.2069V69.7931H21.2414V66.7586Z" fill="#171717"/>
<path d="M30.3448 66.7586H27.3103V69.7931H30.3448V66.7586Z" fill="#171717"/>
<path d="M36.4138 66.7586H33.3793V69.7931H36.4138V66.7586Z" fill="#171717"/>
<path d="M39.4483 66.7586H36.4138V69.7931H39.4483V66.7586Z" fill="#171717"/>
<path d="M45.5172 66.7586H42.4828V69.7931H45.5172V66.7586Z" fill="#171717"/>
<path d="M54.6207 66.7586H51.5862V69.7931H54.6207V66.7586Z" fill="#171717"/>
<path d="M63.7241 66.7586H60.6897V69.7931H63.7241V66.7586Z" fill="#171717"/>
<path d="M69.7931 66.7586H66.7586V69.7931H69.7931V66.7586Z" fill="#171717"/>
<path d="M75.8621 66.7586H72.8276V69.7931H75.8621V66.7586Z" fill="#171717"/>
<path d="M78.8966 66.7586H75.8621V69.7931H78.8966V66.7586Z" fill="#171717"/>
<path d="M88 66.7586H84.9655V69.7931H88V66.7586Z" fill="#171717"/>
<path d="M3.03448 69.7931H0V72.8276H3.03448V69.7931Z" fill="#171717"/>
<path d="M21.2414 69.7931H18.2069V72.8276H21.2414V69.7931Z" fill="#171717"/>
<path d="M27.3103 69.7931H24.2759V72.8276H27.3103V69.7931Z" fill="#171717"/>
<path d="M33.3793 69.7931H30.3448V72.8276H33.3793V69.7931Z" fill="#171717"/>
<path d="M36.4138 69.7931H33.3793V72.8276H36.4138V69.7931Z" fill="#171717"/>
<path d="M42.4828 69.7931H39.4483V72.8276H42.4828V69.7931Z" fill="#171717"/>
<path d="M54.6207 69.7931H51.5862V72.8276H54.6207V69.7931Z" fill="#171717"/>
<path d="M57.6552 69.7931H54.6207V72.8276H57.6552V69.7931Z" fill="#171717"/>
<path d="M60.6897 69.7931H57.6552V72.8276H60.6897V69.7931Z" fill="#171717"/>
<path d="M63.7241 69.7931H60.6897V72.8276H63.7241V69.7931Z" fill="#171717"/>
<path d="M75.8621 69.7931H72.8276V72.8276H75.8621V69.7931Z" fill="#171717"/>
<path d="M78.8966 69.7931H75.8621V72.8276H78.8966V69.7931Z" fill="#171717"/>
<path d="M84.9655 69.7931H81.931V72.8276H84.9655V69.7931Z" fill="#171717"/>
<path d="M3.03448 72.8276H0V75.8621H3.03448V72.8276Z" fill="#171717"/>
<path d="M9.10345 72.8276H6.06897V75.8621H9.10345V72.8276Z" fill="#171717"/>
<path d="M12.1379 72.8276H9.10345V75.8621H12.1379V72.8276Z" fill="#171717"/>
<path d="M15.1724 72.8276H12.1379V75.8621H15.1724V72.8276Z" fill="#171717"/>
<path d="M21.2414 72.8276H18.2069V75.8621H21.2414V72.8276Z" fill="#171717"/>
<path d="M33.3793 72.8276H30.3448V75.8621H33.3793V72.8276Z" fill="#171717"/>
<path d="M36.4138 72.8276H33.3793V75.8621H36.4138V72.8276Z" fill="#171717"/>
<path d="M45.5172 72.8276H42.4828V75.8621H45.5172V72.8276Z" fill="#171717"/>
<path d="M48.5517 72.8276H45.5172V75.8621H48.5517V72.8276Z" fill="#171717"/>
<path d="M57.6552 72.8276H54.6207V75.8621H57.6552V72.8276Z" fill="#171717"/>
<path d="M60.6897 72.8276H57.6552V75.8621H60.6897V72.8276Z" fill="#171717"/>
<path d="M63.7241 72.8276H60.6897V75.8621H63.7241V72.8276Z" fill="#171717"/>
<path d="M66.7586 72.8276H63.7241V75.8621H66.7586V72.8276Z" fill="#171717"/>
<path d="M69.7931 72.8276H66.7586V75.8621H69.7931V72.8276Z" fill="#171717"/>
<path d="M72.8276 72.8276H69.7931V75.8621H72.8276V72.8276Z" fill="#171717"/>
<path d="M75.8621 72.8276H72.8276V75.8621H75.8621V72.8276Z" fill="#171717"/>
<path d="M78.8966 72.8276H75.8621V75.8621H78.8966V72.8276Z" fill="#171717"/>
<path d="M81.931 72.8276H78.8966V75.8621H81.931V72.8276Z" fill="#171717"/>
<path d="M84.9655 72.8276H81.931V75.8621H84.9655V72.8276Z" fill="#171717"/>
<path d="M88 72.8276H84.9655V75.8621H88V72.8276Z" fill="#171717"/>
<path d="M3.03448 75.8621H0V78.8966H3.03448V75.8621Z" fill="#171717"/>
<path d="M9.10345 75.8621H6.06897V78.8966H9.10345V75.8621Z" fill="#171717"/>
<path d="M12.1379 75.8621H9.10345V78.8966H12.1379V75.8621Z" fill="#171717"/>
<path d="M15.1724 75.8621H12.1379V78.8966H15.1724V75.8621Z" fill="#171717"/>
<path d="M21.2414 75.8621H18.2069V78.8966H21.2414V75.8621Z" fill="#171717"/>
<path d="M30.3448 75.8621H27.3103V78.8966H30.3448V75.8621Z" fill="#171717"/>
<path d="M33.3793 75.8621H30.3448V78.8966H33.3793V75.8621Z" fill="#171717"/>
<path d="M36.4138 75.8621H33.3793V78.8966H36.4138V75.8621Z" fill="#171717"/>
<path d="M39.4483 75.8621H36.4138V78.8966H39.4483V75.8621Z" fill="#171717"/>
<path d="M48.5517 75.8621H45.5172V78.8966H48.5517V75.8621Z" fill="#171717"/>
<path d="M51.5862 75.8621H48.5517V78.8966H51.5862V75.8621Z" fill="#171717"/>
<path d="M57.6552 75.8621H54.6207V78.8966H57.6552V75.8621Z" fill="#171717"/>
<path d="M75.8621 75.8621H72.8276V78.8966H75.8621V75.8621Z" fill="#171717"/>
<path d="M78.8966 75.8621H75.8621V78.8966H78.8966V75.8621Z" fill="#171717"/>
<path d="M3.03448 78.8966H0V81.931H3.03448V78.8966Z" fill="#171717"/>
<path d="M9.10345 78.8966H6.06897V81.931H9.10345V78.8966Z" fill="#171717"/>
<path d="M12.1379 78.8966H9.10345V81.931H12.1379V78.8966Z" fill="#171717"/>
<path d="M15.1724 78.8966H12.1379V81.931H15.1724V78.8966Z" fill="#171717"/>
<path d="M21.2414 78.8966H18.2069V81.931H21.2414V78.8966Z" fill="#171717"/>
<path d="M33.3793 78.8966H30.3448V81.931H33.3793V78.8966Z" fill="#171717"/>
<path d="M36.4138 78.8966H33.3793V81.931H36.4138V78.8966Z" fill="#171717"/>
<path d="M42.4828 78.8966H39.4483V81.931H42.4828V78.8966Z" fill="#171717"/>
<path d="M45.5172 78.8966H42.4828V81.931H45.5172V78.8966Z" fill="#171717"/>
<path d="M63.7241 78.8966H60.6897V81.931H63.7241V78.8966Z" fill="#171717"/>
<path d="M66.7586 78.8966H63.7241V81.931H66.7586V78.8966Z" fill="#171717"/>
<path d="M72.8276 78.8966H69.7931V81.931H72.8276V78.8966Z" fill="#171717"/>
<path d="M3.03448 81.931H0V84.9655H3.03448V81.931Z" fill="#171717"/>
<path d="M21.2414 81.931H18.2069V84.9655H21.2414V81.931Z" fill="#171717"/>
<path d="M33.3793 81.931H30.3448V84.9655H33.3793V81.931Z" fill="#171717"/>
<path d="M36.4138 81.931H33.3793V84.9655H36.4138V81.931Z" fill="#171717"/>
<path d="M39.4483 81.931H36.4138V84.9655H39.4483V81.931Z" fill="#171717"/>
<path d="M45.5172 81.931H42.4828V84.9655H45.5172V81.931Z" fill="#171717"/>
<path d="M48.5517 81.931H45.5172V84.9655H48.5517V81.931Z" fill="#171717"/>
<path d="M51.5862 81.931H48.5517V84.9655H51.5862V81.931Z" fill="#171717"/>
<path d="M57.6552 81.931H54.6207V84.9655H57.6552V81.931Z" fill="#171717"/>
<path d="M60.6897 81.931H57.6552V84.9655H60.6897V81.931Z" fill="#171717"/>
<path d="M66.7586 81.931H63.7241V84.9655H66.7586V81.931Z" fill="#171717"/>
<path d="M69.7931 81.931H66.7586V84.9655H69.7931V81.931Z" fill="#171717"/>
<path d="M72.8276 81.931H69.7931V84.9655H72.8276V81.931Z" fill="#171717"/>
<path d="M75.8621 81.931H72.8276V84.9655H75.8621V81.931Z" fill="#171717"/>
<path d="M84.9655 81.931H81.931V84.9655H84.9655V81.931Z" fill="#171717"/>
<path d="M88 81.931H84.9655V84.9655H88V81.931Z" fill="#171717"/>
<path d="M3.03448 84.9655H0V88H3.03448V84.9655Z" fill="#171717"/>
<path d="M6.06897 84.9655H3.03448V88H6.06897V84.9655Z" fill="#171717"/>
<path d="M9.10345 84.9655H6.06897V88H9.10345V84.9655Z" fill="#171717"/>
<path d="M12.1379 84.9655H9.10345V88H12.1379V84.9655Z" fill="#171717"/>
<path d="M15.1724 84.9655H12.1379V88H15.1724V84.9655Z" fill="#171717"/>
<path d="M18.2069 84.9655H15.1724V88H18.2069V84.9655Z" fill="#171717"/>
<path d="M21.2414 84.9655H18.2069V88H21.2414V84.9655Z" fill="#171717"/>
<path d="M30.3448 84.9655H27.3103V88H30.3448V84.9655Z" fill="#171717"/>
<path d="M39.4483 84.9655H36.4138V88H39.4483V84.9655Z" fill="#171717"/>
<path d="M45.5172 84.9655H42.4828V88H45.5172V84.9655Z" fill="#171717"/>
<path d="M54.6207 84.9655H51.5862V88H54.6207V84.9655Z" fill="#171717"/>
<path d="M57.6552 84.9655H54.6207V88H57.6552V84.9655Z" fill="#171717"/>
<path d="M60.6897 84.9655H57.6552V88H60.6897V84.9655Z" fill="#171717"/>
<path d="M66.7586 84.9655H63.7241V88H66.7586V84.9655Z" fill="#171717"/>
<path d="M78.8966 84.9655H75.8621V88H78.8966V84.9655Z" fill="#171717"/>
<path d="M81.931 84.9655H78.8966V88H81.931V84.9655Z" fill="#171717"/>
</svg>
