<svg width="32" height="32" viewBox="0 0 32 32" fill="none" xmlns="http://www.w3.org/2000/svg">
<path d="M0 16C0 7.16344 7.16344 0 16 0C24.8366 0 32 7.16344 32 16C32 24.8366 24.8366 32 16 32C7.16344 32 0 24.8366 0 16Z" fill="#335CFF"/>
<path opacity="0.48" d="M12.3397 20.2554C12.0443 20.2554 11.7681 20.4021 11.6029 20.647L9.73563 23.4139C9.33721 24.0042 9.7602 24.8 10.4724 24.8H19.6092C19.9046 24.8 20.1807 24.6532 20.346 24.4083L27.0647 14.4528C27.4631 13.8624 27.0401 13.0667 26.3279 13.0667H20.1462C19.8508 13.0667 19.5747 13.2134 19.4094 13.4583L15.483 19.2763C15.0699 19.8884 14.3796 20.2554 13.641 20.2554H12.3397Z" fill="url(#paint0_linear_171742_637)"/>
<path d="M10.9335 8.02422C11.2597 7.51092 11.8257 7.20001 12.4339 7.20001H19.9821C20.6832 7.20001 21.1084 7.97391 20.7323 8.56569L14.6669 18.1091C14.3407 18.6224 13.7747 18.9333 13.1666 18.9333H5.61836C4.91718 18.9333 4.49206 18.1594 4.86816 17.5677L10.9335 8.02422Z" fill="url(#paint1_linear_171742_637)"/>
<defs>
<linearGradient id="paint0_linear_171742_637" x1="18.4002" y1="13.0667" x2="18.4002" y2="30.8585" gradientUnits="userSpaceOnUse">
<stop offset="0.313079" stop-color="white"/>
<stop offset="1" stop-color="white" stop-opacity="0"/>
</linearGradient>
<linearGradient id="paint1_linear_171742_637" x1="12.8003" y1="7.20001" x2="12.8003" y2="22.7156" gradientUnits="userSpaceOnUse">
<stop offset="0.38239" stop-color="white"/>
<stop offset="1" stop-color="white" stop-opacity="0"/>
</linearGradient>
</defs>
</svg>
