<svg width="20" height="20" viewBox="0 0 20 20" fill="none" xmlns="http://www.w3.org/2000/svg">
<path d="M6.9559 14.5C6.73315 13.5452 5.72815 12.7645 5.31565 12.25C4.6093 11.3675 4.16661 10.3033 4.0386 9.18021C3.91059 8.05708 4.10245 6.92064 4.59209 5.90179C5.08173 4.88294 5.84923 4.02314 6.80617 3.42142C7.76311 2.8197 8.87057 2.50055 10.001 2.50073C11.1314 2.50091 12.2387 2.82042 13.1955 3.42244C14.1522 4.02447 14.9194 4.88452 15.4087 5.90352C15.8981 6.92253 16.0896 8.05903 15.9612 9.18212C15.8328 10.3052 15.3898 11.3692 14.6832 12.2515C14.2707 12.7652 13.2672 13.546 13.0444 14.5H6.95515H6.9559ZM13.0002 16V16.75C13.0002 17.1478 12.8421 17.5293 12.5608 17.8106C12.2795 18.0919 11.898 18.25 11.5002 18.25H8.50015C8.10233 18.25 7.7208 18.0919 7.43949 17.8106C7.15819 17.5293 7.00015 17.1478 7.00015 16.75V16H13.0002ZM10.7502 8.50373V5.49998L7.37515 10.0037H9.25015V13.0037L12.6252 8.50373H10.7502Z" fill="#E6A819"/>
</svg>
