<svg width="24" height="24" viewBox="0 0 24 24" fill="none" xmlns="http://www.w3.org/2000/svg">
<path d="M13.937 1.51648L13.9273 6.15709L13.9177 10.7977L13.4729 9.72041V9.71765L12.896 20.0485C13.4632 21.4186 13.7662 22.1506 13.7694 22.1534C13.7726 22.1561 14.0949 22.1727 14.4849 22.1893C15.6645 22.239 17.1277 22.3467 18.2396 22.4655C18.4975 22.4931 18.7166 22.5069 18.7328 22.4959C18.7489 22.4848 18.7521 17.7614 18.7489 11.9965L18.7392 1.51648H13.937Z" fill="url(#paint0_linear_171742_573)"/>
<path d="M5.25 1.50276V11.9939C5.25 17.7643 5.25645 22.4905 5.26611 22.4988C5.27578 22.5071 5.69154 22.4712 6.19433 22.4242C6.69711 22.3773 7.39004 22.3165 7.7349 22.2916C8.26346 22.253 9.84916 22.1673 10.0296 22.1646C10.0844 22.1646 10.0877 21.9298 10.0941 17.7201L10.1038 13.2756L10.4873 14.2037C10.5453 14.3473 10.5647 14.3915 10.6227 14.5324L11.1996 4.20427C11.0771 3.9087 11.1416 4.06339 11.003 3.72639C10.5324 2.58557 10.1328 1.62154 10.1167 1.57734L10.0844 1.5H5.25V1.50276Z" fill="url(#paint1_linear_171742_573)"/>
<path d="M5.25 1.50276L10.1006 13.2838V13.2783L10.4841 14.2064C12.6145 19.3746 13.7586 22.1479 13.7651 22.1534C13.7683 22.1562 14.0906 22.1727 14.4806 22.1893C15.6602 22.239 17.1234 22.3468 18.2354 22.4655C18.49 22.4932 18.7124 22.507 18.7252 22.4959L13.9166 10.795V10.7978L13.4718 9.72048C13.0367 8.66806 12.7466 7.96368 10.9966 3.72638C10.526 2.58557 10.1264 1.62154 10.1102 1.57734L10.078 1.5H7.66401L5.25 1.50276Z" fill="#E30A17"/>
<defs>
<linearGradient id="paint0_linear_171742_573" x1="20.9148" y1="17.2056" x2="13.2388" y2="20.5903" gradientUnits="userSpaceOnUse">
<stop stop-color="#B20610"/>
<stop offset="0.255959" stop-color="#B20610"/>
<stop offset="1" stop-color="#590004"/>
</linearGradient>
<linearGradient id="paint1_linear_171742_573" x1="2.91923" y1="6.103" x2="11.2208" y2="2.48475" gradientUnits="userSpaceOnUse">
<stop stop-color="#B20610"/>
<stop offset="0.255959" stop-color="#B20610"/>
<stop offset="1" stop-color="#590004"/>
</linearGradient>
</defs>
</svg>
