<svg width="24" height="24" viewBox="0 0 24 24" fill="none" xmlns="http://www.w3.org/2000/svg">
<path d="M16.5028 1.82098C18.8353 4.70017 20.1056 8.29455 20.1001 12C20.1001 15.8565 18.7528 19.398 16.5028 22.179L15.1024 21.0486C17.1759 18.4892 18.3051 15.2939 18.3001 12C18.3001 8.57188 17.1031 5.42458 15.1024 2.95138L16.5028 1.82098ZM13.0018 4.64788C14.6866 6.72743 15.6041 9.3236 15.6001 12C15.6001 14.7846 14.6272 17.3424 13.0027 19.3521L11.6023 18.2208C13.0276 16.4611 13.8037 14.2645 13.8001 12C13.8001 9.64378 12.9766 7.47928 11.6023 5.77918L13.0027 4.64788L13.0018 4.64788ZM9.50078 7.47568C10.5377 8.75534 11.1024 10.353 11.1001 12C11.1001 13.7136 10.5016 15.2877 9.50168 16.5243L8.10128 15.393C8.87867 14.4332 9.30199 13.2351 9.30008 12C9.30008 10.7148 8.85098 9.53398 8.10128 8.60698L9.50168 7.47568L9.50078 7.47568ZM5.99978 10.3035C6.38883 10.7832 6.60082 11.3823 6.60008 12C6.60008 12.6426 6.37508 13.233 6.00068 13.6965L3.90008 12L6.00068 10.3035L5.99978 10.3035Z" fill="#7B7B7B"/>
</svg>
