<svg width="20" height="20" viewBox="0 0 20 20" fill="none" xmlns="http://www.w3.org/2000/svg">
<path d="M10.8399 13.767L7.69066 12.0495C7.27951 12.4891 6.74565 12.7948 6.15846 12.927C5.57128 13.0591 4.95792 13.0116 4.3981 12.7906C3.83828 12.5695 3.35788 12.1853 3.01934 11.6876C2.68079 11.19 2.49976 10.602 2.49976 10.0002C2.49976 9.39829 2.68079 8.81033 3.01934 8.3127C3.35788 7.81507 3.83828 7.43078 4.3981 7.20976C4.95792 6.98874 5.57128 6.94122 6.15846 7.07337C6.74565 7.20552 7.27951 7.51124 7.69066 7.95079L10.8407 6.23329C10.6618 5.52534 10.7473 4.77648 11.0811 4.12706C11.4149 3.47765 11.9741 2.97227 12.6539 2.70566C13.3337 2.43905 14.0873 2.42952 14.7736 2.67884C15.4599 2.92816 16.0318 3.41922 16.3819 4.05998C16.732 4.70074 16.8364 5.4472 16.6756 6.15945C16.5147 6.87169 16.0996 7.50081 15.5081 7.92889C14.9166 8.35697 14.1892 8.55462 13.4624 8.48478C12.7355 8.41494 12.0591 8.08242 11.5599 7.54954L8.40991 9.26704C8.53081 9.74806 8.53081 10.2515 8.40991 10.7325L11.5592 12.45C12.0584 11.9172 12.7348 11.5846 13.4616 11.5148C14.1884 11.445 14.9158 11.6426 15.5073 12.0707C16.0989 12.4988 16.514 13.1279 16.6748 13.8401C16.8357 14.5524 16.7313 15.2988 16.3811 15.9396C16.031 16.5803 15.4592 17.0714 14.7729 17.3207C14.0866 17.5701 13.3329 17.5605 12.6532 17.2939C11.9734 17.0273 11.4142 16.5219 11.0804 15.8725C10.7466 15.2231 10.6611 14.4742 10.8399 13.7663V13.767ZM5.49991 11.4998C5.89774 11.4998 6.27927 11.3418 6.56057 11.0604C6.84188 10.7791 6.99991 10.3976 6.99991 9.99979C6.99991 9.60196 6.84188 9.22043 6.56057 8.93913C6.27927 8.65782 5.89774 8.49979 5.49991 8.49979C5.10209 8.49979 4.72055 8.65782 4.43925 8.93913C4.15795 9.22043 3.99991 9.60196 3.99991 9.99979C3.99991 10.3976 4.15795 10.7791 4.43925 11.0604C4.72055 11.3418 5.10209 11.4998 5.49991 11.4998V11.4998ZM13.7499 6.99979C14.1477 6.99979 14.5293 6.84175 14.8106 6.56045C15.0919 6.27914 15.2499 5.89761 15.2499 5.49979C15.2499 5.10196 15.0919 4.72043 14.8106 4.43913C14.5293 4.15782 14.1477 3.99979 13.7499 3.99979C13.3521 3.99979 12.9706 4.15782 12.6893 4.43913C12.4079 4.72043 12.2499 5.10196 12.2499 5.49979C12.2499 5.89761 12.4079 6.27914 12.6893 6.56045C12.9706 6.84175 13.3521 6.99979 13.7499 6.99979V6.99979ZM13.7499 15.9998C14.1477 15.9998 14.5293 15.8418 14.8106 15.5604C15.0919 15.2791 15.2499 14.8976 15.2499 14.4998C15.2499 14.102 15.0919 13.7204 14.8106 13.4391C14.5293 13.1578 14.1477 12.9998 13.7499 12.9998C13.3521 12.9998 12.9706 13.1578 12.6893 13.4391C12.4079 13.7204 12.2499 14.102 12.2499 14.4998C12.2499 14.8976 12.4079 15.2791 12.6893 15.5604C12.9706 15.8418 13.3521 15.9998 13.7499 15.9998V15.9998Z" fill="white"/>
</svg>
