<svg width="24" height="24" viewBox="0 0 24 24" fill="none" xmlns="http://www.w3.org/2000/svg">
<g filter="url(#filter0_d_171752_1946)">
<path fill-rule="evenodd" clip-rule="evenodd" d="M14.4429 4.10207L13.1932 2.85229C12.5341 2.19328 11.4657 2.19328 10.8067 2.85229L9.5569 4.10207H7.78944C6.85746 4.10207 6.10194 4.85758 6.10194 5.78957V7.55702L4.85217 8.8068C4.19316 9.4658 4.19316 10.5343 4.85217 11.1933L6.10194 12.4431V14.2105C6.10194 15.1425 6.85746 15.898 7.78944 15.898H9.5569L10.8067 17.1478C11.4657 17.8068 12.5341 17.8068 13.1932 17.1478L14.4429 15.898H16.2104C17.1424 15.898 17.8979 15.1425 17.8979 14.2105V12.4431L19.1477 11.1933C19.8067 10.5343 19.8067 9.46581 19.1477 8.8068L17.8979 7.55702V5.78957C17.8979 4.85759 17.1424 4.10207 16.2104 4.10207H14.4429ZM13.8122 5.06231C13.9177 5.1678 14.0608 5.22707 14.2099 5.22707H16.2104C16.521 5.22707 16.7729 5.47891 16.7729 5.78957V7.79001C16.7729 7.9392 16.8321 8.08227 16.9376 8.18776L18.3522 9.60229C18.5718 9.82196 18.5718 10.1781 18.3522 10.3978L16.9376 11.8123C16.8321 11.9178 16.7729 12.0609 16.7729 12.2101V14.2105C16.7729 14.5212 16.521 14.773 16.2104 14.773H14.2099C14.0608 14.773 13.9177 14.8323 13.8122 14.9378L12.3977 16.3523C12.178 16.572 11.8218 16.572 11.6022 16.3523L10.1876 14.9378C10.0821 14.8323 9.93908 14.773 9.78989 14.773H7.78944C7.47878 14.773 7.22694 14.5212 7.22694 14.2105V12.2101C7.22694 12.0609 7.16768 11.9178 7.06219 11.8123L5.64766 10.3978C5.42799 10.1781 5.42799 9.82196 5.64766 9.60229L7.06219 8.18776C7.16768 8.08227 7.22694 7.9392 7.22694 7.79001V5.78957C7.22694 5.47891 7.47878 5.22707 7.78944 5.22707H9.78989C9.93908 5.22707 10.0821 5.1678 10.1876 5.06231L11.6022 3.64778C11.8218 3.42811 12.178 3.42811 12.3977 3.64778L13.8122 5.06231Z" fill="#171717"/>
<path d="M14.2099 5.22694C14.0608 5.22694 13.9177 5.16768 13.8122 5.06219L12.3977 3.64766C12.178 3.42799 11.8218 3.42799 11.6022 3.64766L10.1876 5.06219C10.0821 5.16768 9.93907 5.22694 9.78989 5.22694H7.78944C7.47878 5.22694 7.22694 5.47878 7.22694 5.78944V7.78989C7.22694 7.93907 7.16768 8.08215 7.06219 8.18764L5.64766 9.60217C5.42799 9.82184 5.42799 10.178 5.64766 10.3977L7.06219 11.8122C7.16768 11.9177 7.22694 12.0608 7.22694 12.2099V14.2104C7.22694 14.521 7.47878 14.7729 7.78944 14.7729H9.78989C9.93907 14.7729 10.0821 14.8321 10.1876 14.9376L11.6022 16.3522C11.8218 16.5718 12.178 16.5718 12.3977 16.3522L13.8122 14.9376C13.9177 14.8321 14.0608 14.7729 14.2099 14.7729H16.2104C16.521 14.7729 16.7729 14.521 16.7729 14.2104V12.2099C16.7729 12.0608 16.8321 11.9177 16.9376 11.8122L18.3522 10.3977C18.5718 10.178 18.5718 9.82184 18.3522 9.60217L16.9376 8.18764C16.8321 8.08215 16.7729 7.93907 16.7729 7.78989V5.78944C16.7729 5.47878 16.521 5.22694 16.2104 5.22694H14.2099Z" fill="#35ADE9"/>
<path fill-rule="evenodd" clip-rule="evenodd" d="M15.0228 8.52279L11.25 12.2955L9.35229 10.3978L10.1478 9.60229L11.25 10.7045L14.2273 7.72729L15.0228 8.52279Z" fill="#171717"/>
</g>
<defs>
<filter id="filter0_d_171752_1946" x="-1" y="-1" width="26" height="26" filterUnits="userSpaceOnUse" color-interpolation-filters="sRGB">
<feFlood flood-opacity="0" result="BackgroundImageFix"/>
<feColorMatrix in="SourceAlpha" type="matrix" values="0 0 0 0 0 0 0 0 0 0 0 0 0 0 0 0 0 0 127 0" result="hardAlpha"/>
<feOffset dy="2"/>
<feGaussianBlur stdDeviation="2"/>
<feColorMatrix type="matrix" values="0 0 0 0 0.105882 0 0 0 0 0.109804 0 0 0 0 0.113725 0 0 0 0.04 0"/>
<feBlend mode="normal" in2="BackgroundImageFix" result="effect1_dropShadow_171752_1946"/>
<feBlend mode="normal" in="SourceGraphic" in2="effect1_dropShadow_171752_1946" result="shape"/>
</filter>
</defs>
</svg>
