<svg width="56" height="56" viewBox="0 0 56 56" fill="none" xmlns="http://www.w3.org/2000/svg">
<path d="M0 28C0 12.536 12.536 0 28 0C43.464 0 56 12.536 56 28C56 43.464 43.464 56 28 56C12.536 56 0 43.464 0 28Z" fill="#335CFF"/>
<path opacity="0.48" d="M21.594 35.4469C21.077 35.4469 20.5938 35.7038 20.3046 36.1323L17.0369 40.9743C16.3396 42.0074 17.0799 43.4 18.3263 43.4H34.3155C34.8325 43.4 35.3157 43.1432 35.6049 42.7147L47.3627 25.2924C48.06 24.2593 47.3198 22.8667 46.0733 22.8667H35.2554C34.7384 22.8667 34.2552 23.1235 33.966 23.5521L27.0948 33.7335C26.3718 34.8048 25.1638 35.4469 23.8713 35.4469H21.594Z" fill="url(#paint0_linear_167874_112036)"/>
<path d="M19.1334 14.0425C19.7043 13.1442 20.6948 12.6001 21.7591 12.6001H34.9685C36.1955 12.6001 36.9395 13.9544 36.2813 14.99L25.667 31.6911C25.0961 32.5893 24.1057 33.1334 23.0413 33.1334H9.832C8.60494 33.1334 7.86098 31.7791 8.51915 30.7435L19.1334 14.0425Z" fill="url(#paint1_linear_167874_112036)"/>
<defs>
<linearGradient id="paint0_linear_167874_112036" x1="32.1999" y1="22.8667" x2="32.1999" y2="54.0025" gradientUnits="userSpaceOnUse">
<stop offset="0.313079" stop-color="white"/>
<stop offset="1" stop-color="white" stop-opacity="0"/>
</linearGradient>
<linearGradient id="paint1_linear_167874_112036" x1="22.4004" y1="12.6001" x2="22.4004" y2="39.7523" gradientUnits="userSpaceOnUse">
<stop offset="0.38239" stop-color="white"/>
<stop offset="1" stop-color="white" stop-opacity="0"/>
</linearGradient>
</defs>
</svg>
