<svg width="21" height="20" viewBox="0 0 21 20" fill="none" xmlns="http://www.w3.org/2000/svg">
<path d="M14.7586 10.0523C14.7797 12.3223 16.75 13.0777 16.7718 13.0873C16.7552 13.1405 16.457 14.1638 15.7338 15.2207C15.1086 16.1345 14.4597 17.0449 13.4376 17.0637C12.4332 17.0822 12.1102 16.4682 10.9619 16.4682C9.81401 16.4682 9.45519 17.0449 8.50443 17.0823C7.51779 17.1196 6.76644 16.0942 6.13608 15.1837C4.84796 13.3214 3.86356 9.92133 5.18536 7.62621C5.84199 6.48644 7.01546 5.76469 8.28914 5.74618C9.258 5.7277 10.1725 6.398 10.7648 6.398C11.3567 6.398 12.468 5.59191 13.6362 5.71029C14.1253 5.73065 15.4982 5.90785 16.3797 7.1982C16.3087 7.24223 14.7416 8.1545 14.7586 10.0523ZM12.871 4.47823C13.3948 3.84417 13.7474 2.9615 13.6512 2.08325C12.8962 2.1136 11.9832 2.58639 11.4416 3.2201C10.9562 3.78128 10.5312 4.67948 10.6459 5.54035C11.4875 5.60546 12.3472 5.11269 12.871 4.47823Z" fill="black"/>
</svg>
