<svg width="21" height="20" viewBox="0 0 21 20" fill="none" xmlns="http://www.w3.org/2000/svg">
<path fill-rule="evenodd" clip-rule="evenodd" d="M16.1663 2.5H4.49967C3.57884 2.5 2.83301 3.24583 2.83301 4.16667V15.8333C2.83301 16.7542 3.57884 17.5 4.49967 17.5H16.1663C17.0872 17.5 17.833 16.7542 17.833 15.8333V4.16667C17.833 3.24583 17.0872 2.5 16.1663 2.5ZM7.36842 15.4167H5.13092V8.19375H7.36842V15.4167ZM6.23926 7.24792C5.50801 7.24792 4.91634 6.65208 4.91634 5.91458C4.91634 5.17708 5.50801 4.58125 6.23926 4.58125C6.97051 4.58125 7.56217 5.17708 7.56217 5.91458C7.56217 6.65208 6.97051 7.24792 6.23926 7.24792ZM15.7497 15.4167H13.5247V11.625C13.5247 10.5854 13.1288 10.0042 12.308 10.0042C11.4122 10.0042 10.9455 10.6083 10.9455 11.625V15.4167H8.79967V8.19375H10.9455V9.16667C10.9455 9.16667 11.5913 7.97292 13.1226 7.97292C14.6538 7.97292 15.7518 8.90833 15.7518 10.8438V15.4167H15.7497Z" fill="#0077B5"/>
</svg>
