<svg width="20" height="20" viewBox="0 0 20 20" fill="none" xmlns="http://www.w3.org/2000/svg">
<path d="M14.0921 10.0523C14.1132 12.3223 16.0835 13.0777 16.1053 13.0873C16.0887 13.1405 15.7905 14.1638 15.0673 15.2207C14.4421 16.1345 13.7932 17.0449 12.7711 17.0637C11.7667 17.0822 11.4437 16.4682 10.2954 16.4682C9.14751 16.4682 8.78868 17.0449 7.83793 17.0823C6.85129 17.1196 6.09994 16.0942 5.46958 15.1837C4.18145 13.3214 3.19706 9.92133 4.51885 7.62621C5.17549 6.48644 6.34895 5.76469 7.62264 5.74618C8.5915 5.7277 9.50596 6.398 10.0983 6.398C10.6902 6.398 11.8015 5.59191 12.9697 5.71029C13.4588 5.73065 14.8317 5.90785 15.7132 7.1982C15.6422 7.24223 14.0751 8.1545 14.0921 10.0523ZM12.2045 4.47823C12.7283 3.84417 13.0809 2.9615 12.9847 2.08325C12.2297 2.1136 11.3167 2.58639 10.7751 3.2201C10.2897 3.78128 9.86468 4.67948 9.97937 5.54035C10.8209 5.60546 11.6807 5.11269 12.2045 4.47823Z" fill="white"/>
</svg>
