<svg width="19" height="18" viewBox="0 0 19 18" fill="none" xmlns="http://www.w3.org/2000/svg">
<path d="M9.77945 4.27505H15.575C15.754 4.27505 15.9257 4.34616 16.0523 4.47275C16.1789 4.59934 16.25 4.77103 16.25 4.95005V14.4C16.25 14.5791 16.1789 14.7508 16.0523 14.8773C15.9257 15.0039 15.754 15.075 15.575 15.075H3.425C3.24598 15.075 3.07429 15.0039 2.9477 14.8773C2.82112 14.7508 2.75 14.5791 2.75 14.4V3.60005C2.75 3.42103 2.82112 3.24934 2.9477 3.12275C3.07429 2.99616 3.24598 2.92505 3.425 2.92505H8.42945L9.77945 4.27505ZM14.9 8.32505H4.1V13.725H14.9V8.32505ZM14.9 6.97505V5.62505H9.22055L7.87055 4.27505H4.1V6.97505H14.9Z" fill="#624C18"/>
</svg>
