<svg width="25" height="24" viewBox="0 0 25 24" fill="none" xmlns="http://www.w3.org/2000/svg">
<path d="M12.5014 9.33802L9.90577 4.75723C9.99195 4.66948 10.0911 4.61193 10.1903 4.57324C9.42481 4.82516 9.0736 5.68471 9.0736 5.68471L4.33171 14.0509C4.26499 14.3132 4.24646 14.55 4.2548 14.7585H9.43037L12.5014 9.33802Z" fill="#34A853"/>
<path d="M12.5015 9.33802L15.5725 14.7585H20.7481C20.7564 14.55 20.7379 14.3132 20.6712 14.0509L15.9293 5.68471C15.9293 5.68471 15.5772 4.82516 14.8126 4.57324C14.9109 4.61193 15.0109 4.66948 15.0971 4.75723L12.5015 9.33802Z" fill="#FBBC05"/>
<path d="M12.5014 9.33857L15.0971 4.75778C15.0109 4.67003 14.9108 4.61248 14.8126 4.57379C14.6995 4.537 14.5781 4.51246 14.4466 4.50586H14.3094H10.6934H10.5563C10.4256 4.51152 10.3033 4.53605 10.1903 4.57379C10.092 4.61248 9.99194 4.67003 9.90576 4.75778L12.5014 9.33857Z" fill="#188038"/>
<path d="M9.43117 14.7588L6.86516 19.2877C6.86516 19.2877 6.7799 19.2462 6.66406 19.1603C7.02825 19.4405 7.38225 19.5 7.38225 19.5H17.46C18.016 19.5 18.1319 19.2877 18.1319 19.2877C18.1337 19.2867 18.1347 19.2858 18.1365 19.2849L15.5724 14.7588H9.43117Z" fill="#4285F4"/>
<path d="M9.43143 14.7588H4.25586C4.28181 15.374 4.54869 15.7334 4.54869 15.7334L4.7433 16.0712C4.7572 16.091 4.76554 16.1024 4.76554 16.1024L5.18904 16.8459L6.13982 18.5008C6.16762 18.5678 6.20006 18.6291 6.23435 18.6876C6.24732 18.7074 6.25937 18.7291 6.27327 18.748C6.27697 18.7537 6.28068 18.7593 6.28439 18.765C6.40208 18.931 6.53367 19.0594 6.66526 19.1603C6.7811 19.2471 6.86635 19.2877 6.86635 19.2877L9.43143 14.7588Z" fill="#1967D2"/>
<path d="M15.5723 14.7588H20.7478C20.7219 15.374 20.455 15.7334 20.455 15.7334L20.2604 16.0712C20.2465 16.091 20.2382 16.1024 20.2382 16.1024L19.8147 16.8459L18.8639 18.5008C18.8361 18.5678 18.8036 18.6291 18.7694 18.6876C18.7564 18.7074 18.7443 18.7291 18.7304 18.748C18.7267 18.7537 18.723 18.7593 18.7193 18.765C18.6016 18.931 18.47 19.0594 18.3384 19.1603C18.2226 19.2471 18.1373 19.2877 18.1373 19.2877L15.5723 14.7588Z" fill="#EA4335"/>
</svg>
